<svg width="343" height="309" viewBox="0 0 343 309" fill="none" xmlns="http://www.w3.org/2000/svg">
<g id="Group 1">
<circle id="Ellipse 1" cx="120" cy="189" r="120" fill="#FFFF00"/>
<path id="Vector 1" d="M61 223L70 203C91.6 232.6 107.667 228.667 113 223L171 117H189L113 260C101.8 246.4 73.6667 229.667 61 223Z" fill="white" stroke="white"/>
<path id="Vector 2" d="M36.114 12.9135L139.114 96.9135H178.114L216.114 152.914C216.114 152.914 329 233 334 235.5C339 238 344.514 219.514 342.114 205.914C339.714 192.314 292.447 127.58 269.114 96.9135C275.447 87.2469 284.213 75.5449 289.013 65.1449C295.013 52.1449 298.193 27.2291 275.013 24.6449C250.513 21.9135 211.715 51.6822 208.114 49.9135C204.513 48.1449 228.013 57.1449 139.114 21.9135C50.2153 -13.3178 34.4474 1.91352 36.114 12.9135Z" fill="#FFFF00"/>
<path id="Vector 3" d="M269.5 44.5C267.1 41.3 258.5 39.8333 254.5 39.5L264 30.5C268.167 31.1667 277.3 32.9 280.5 34.5C283.7 36.1 286.167 41.8333 287 44.5L276.5 55.5C275.167 53.1667 271.9 47.7 269.5 44.5Z" fill="white"/>
</g>
</svg>
